# AST/ASF file generated using VICON BodyLanguage
# -----------------------------------------------
:version 1.10
:name VICON
:units
  mass 1.0
  length 0.45
  angle deg
:documentation
   .ast/.asf automatically generated from VICON data using
   VICON BodyBuilder and BodyLanguage model FoxedUp or BRILLIANT.MOD
:root
   order TX TY TZ RX RY RZ
   axis XYZ
   position 0 0 0  
   orientation 0 0 0 
:bonedata
  begin
     id 1 
     name lhipjoint
     direction 0.577973 -0.728611 0.367523 
     length 2.48544 
     axis 0 0 0  XYZ
  end
  begin
     id 2 
     name lfemur
     direction 0.34202 -0.939693 0  
     length 7.1921  
     axis 0 0 20  XYZ
    dof rx ry rz
    limits (-160.0 20.0)
           (-70.0 70.0)
           (-60.0 70.0)
  end
  begin
     id 3 
     name ltibia
     direction 0.34202 -0.939693 0   
     length 7.71059   
     axis 0 0 20   XYZ
    dof rx
    limits (-10.0 170.0)
  end
  begin
     id 4 
     name lfoot
     direction 0.089538 -0.246004 0.965124   
     length 2.19909   
     axis -90 7.62852e-016 20   XYZ
    dof rx rz
    limits (-45.0 90.0)
           (-70.0 20.0)
  end
  begin
     id 5 
     name ltoes
     direction 1.53544e-011 -4.21829e-011 1   
     length 1.10116   
     axis -90 7.62852e-016 20   XYZ
    dof rx
    limits (-90.0 20.0)
  end
  begin
     id 6 
     name rhipjoint
     direction -0.554414 -0.743062 0.374812   
     length 2.4371  
     axis 0 0 0  XYZ 
  end
  begin
     id 7 
     name rfemur
     direction -0.34202 -0.939693 0   
     length 7.47254   
     axis 0 0 -20   XYZ
    dof rx ry rz
    limits (-160.0 20.0)
           (-70.0 70.0)
           (-70.0 60.0)
  end
  begin
     id 8 
     name rtibia
     direction -0.34202 -0.939693 0   
     length 7.65855   
     axis 0 0 -20   XYZ
    dof rx
    limits (-10.0 170.0)
 end
 begin
     id 9 
     name rfoot
     direction -0.133779 -0.367555 0.92033   
     length 2.43006  
     axis -90 -7.62852e-016 -20   XYZ
    dof rx rz
    limits (-45.0 90.0)
           (-20.0 70.0)
  end
  begin
     id 10 
     name rtoes
     direction -1.53563e-011 -4.21889e-011 1   
     length 1.19625   
     axis -90 -7.62852e-016 -20   XYZ
    dof rx
    limits (-90.0 20.0)
  end
  begin
     id 11 
     name lowerback
     direction 0.0249066 0.998043 -0.0573585   
     length 2.08485   
     axis 0 0 0   XYZ
    dof rx ry rz
    limits (-20.0 45.0)
           (-30.0 30.0)
           (-30.0 30.0)
  end
  begin
     id 12 
     name upperback
     direction 0.0237884 0.999673 0.00943178   
     length 2.08515   
     axis 0 0 0   XYZ
    dof rx ry rz
    limits (-20.0 45.0)
           (-30.0 30.0)
           (-30.0 30.0)
  end
  begin
     id 13 
     name thorax
     direction 0.0106671 0.999301 0.0358174   
     length 2.09037   
     axis 0 0 0   XYZ
    dof rx ry rz
    limits (-20.0 45.0)
           (-30.0 30.0)
           (-30.0 30.0)
  end
  begin
     id 14 
     name lowerneck
     direction -0.0580016 0.987052 0.149546   
     length 1.84454   
     axis 0 0 0   XYZ
    dof rx ry rz
    limits (-20.0 45.0)
           (-30.0 30.0)
           (-30.0 30.0)
  end
  begin
     id 15 
     name upperneck
     direction 0.079456 0.981963 -0.171567   
     length 1.88141   
     axis 0 0 0   XYZ
    dof rx ry rz
    limits (-20.0 45.0)
           (-30.0 30.0)
           (-30.0 30.0)
  end
  begin
     id 16
     name head
     direction 0.0262167 0.9967 -0.0768276  
     length 1.89541  
     axis 0 0 0   XYZ
    dof rx ry rz
    limits (-20.0 45.0)
           (-30.0 30.0)
           (-30.0 30.0)
  end
  begin
     id 17 
     name lclavicle
     direction 0.946135 0.322134 -0.0325326  
     length 3.949  
     axis 0 0 0   XYZ
    dof ry rz
    limits (-20.0 10.0)
           (0.0 20.0)
  end
  begin
     id 18 
     name lhumerus
     direction 1 -4.48964e-011 1.94005e-028   
     length 5.10995   
     axis 180 -30 -90   XYZ
    dof rx ry rz
    limits (-60.0 90.0)
           (-90.0 90.0)
           (-90.0 90.0)
  end
  begin
     id 19
     name lradius
     direction 1 -4.48976e-011 2.87852e-027   
     length 3.21207   
     axis 180 -30 -90   XYZ
    dof rx
    limits (-10.0 170.0)
  end
  begin
     id 20
     name lwrist
     direction 1 -4.48963e-011 1.9975e-027   
     length 1.60604   
     axis 2.96054e-016 90 90   XYZ
    dof ry
    limits (-180.0 0.0)
 end
  begin
     id 21 
     name lhand
     direction 1 -4.48919e-011 4.00227e-027   
     length 0.63349   
     axis -2.5488e-015 90 90   XYZ
    dof rx rz
    limits (-90.0 90.0)
           (-45.0 45.0)
  end
  begin
     id 22 
     name lfingers
     direction 1 -4.49037e-011 7.9652e-027   
     length 0.510736   
     axis -5.0975e-015 90 90   XYZ
    dof rx
    limits (0.0 90.0)
  end
  begin
     id 23
     name lthumb
     direction 0.707107 -6.34922e-011 0.707107   
     length 0.733318   
     axis -90 45 -4.48553e-014   XYZ
    dof rx rz
    limits (-45.0 45.0)
           (-45.0 45.0)
  end
  begin
     id 24 
     name rclavicle
     direction -0.940085 0.328911 -0.0897654   
     length 3.93848  
     axis 0 0 0   XYZ 
    dof ry rz
    limits (-10.0 20.0)
           (-20.0 0.0)
  end
  begin
     id 25 
     name rhumerus
     direction -1 -4.48958e-011 3.02044e-027  
     length 5.25109   
     axis 180 30 90   XYZ
    dof rx ry rz
    limits (-90.0 60.0)
           (-90.0 90.0)
           (-90.0 90.0)
  end
  begin
     id 26 
     name rradius
     direction -1 -4.4897e-011 9.78352e-028   
     length 3.28364   
     axis 180 30 90   XYZ
    dof rx
    limits (-10.0 170.0)
  end
  begin
     id 27 
     name rwrist
     direction -1 -4.48943e-011 1.99918e-027   
     length 1.64182   
     axis 2.96054e-016 -90 -90   XYZ
    dof ry
    limits (-180.0 0.0)
  end
  begin
     id 28
     name rhand
     direction -1 -4.49024e-011 3.98478e-027   
     length 0.599745   
     axis -2.5488e-015 -90 -90   XYZ
    dof rx rz
    limits (-90.0 90.0)
           (-45.0 45.0)
  end
  begin
     id 29
     name rfingers
     direction -1 -4.48914e-011 8.00621e-027   
     length 0.48353   
     axis -5.0975e-015 -90 -90   XYZ
    dof rx
    limits (0.0 90.0)
  end
  begin
     id 30
     name rthumb
     direction -0.707107 -6.34992e-011 0.707107   
     length 0.694255   
     axis -90 -45 4.48553e-014   XYZ
    dof rx rz
    limits (-45.0 45.0)
           (-45.0 45.0)
  end
:hierarchy
  begin
    root lhipjoint rhipjoint lowerback
    lhipjoint lfemur
    lfemur ltibia
    ltibia lfoot
    lfoot ltoes
    rhipjoint rfemur
    rfemur rtibia
    rtibia rfoot
    rfoot rtoes
    lowerback upperback
    upperback thorax
    thorax lowerneck lclavicle rclavicle
    lowerneck upperneck
    upperneck head
    lclavicle lhumerus
    lhumerus lradius
    lradius lwrist
    lwrist lhand lthumb
    lhand lfingers
    rclavicle rhumerus
    rhumerus rradius
    rradius rwrist
    rwrist rhand rthumb
    rhand rfingers
  end

#!OML:ASF E:\CV Data\Top Level 1\Subject 1\Session 1\player.ASF
:FULLY-SPECIFIED
:DEGREES
1
root 5.79336 17.8211 -3.12361 8.79491 -12.442 -1.08864
lowerback 1.34885 1.27087 -4.02977
upperback -2.29271 1.60482 0.891944
thorax -3.25754 0.911071 3.11104
lowerneck 3.52993 -18.4938 -22.9114
upperneck 9.44672 -28.0478 21.4469
head 8.7531 -13.8955 7.32769
rclavicle 1.02685e-014 1.19271e-015
rhumerus -4.23787 30.9304 -92.582
rradius 65.3443
rwrist -19.6617
rhand 31.4036 6.30519
rfingers 7.12502
rthumb 54.9642 -11.8594
lclavicle 1.02685e-014 1.19271e-015
lhumerus -35.8146 -15.3773 95.1204
lradius 95.573
lwrist 60.571
lhand -6.78716 14.9226
lfingers 7.12502
lthumb 19.0755 44.0072
rfemur -5.94299 -11.2639 14.6388
rtibia 19.0473
rfoot -18.1225 -30.2848
rtoes 7.34864
lfemur -16.8892 -1.39789 -19.4022
ltibia 19.2491
lfoot -7.76089 -3.44614
ltoes -0.0707887
2
root 5.79207 17.8209 -3.12045 8.80715 -12.3734 -1.05198
lowerback 1.33849 1.27372 -4.07047
upperback -2.28505 1.60752 0.874832
thorax -3.24476 0.912786 3.11641
lowerneck 3.41916 -18.5266 -22.8499
upperneck 9.49951 -28.0695 21.3829
head 8.77394 -13.8963 7.28277
rclavicle -1.94809e-014 2.32578e-014
rhumerus -6.02531 39.1433 -93.3906
rradius 72.296
rwrist -53.946
rhand -15.843 -10.4795
rfingers 7.12502
rthumb 10.3517 -40.2048
lclavicle -1.94809e-014 2.32578e-014
lhumerus -35.7987 -15.3795 95.0947
lradius 95.5893
lwrist 60.5833
lhand -6.8267 14.6643
lfingers 7.12502
lthumb 19.0375 43.7527
rfemur -5.95731 -11.3498 14.6088
rtibia 19.0872
rfoot -18.1301 -30.2685
rtoes 7.27253
lfemur -16.8928 -1.41924 -19.4361
ltibia 19.2218
lfoot -7.76733 -3.49713
ltoes -0.0882643
3
root 5.78997 17.8215 -3.11714 8.82678 -12.3641 -1.05074
lowerback 1.29747 1.28665 -4.10163
upperback -2.2926 1.62557 0.876773
thorax -3.23205 0.922465 3.1359
lowerneck 3.47257 -18.5303 -22.8706
upperneck 9.47108 -28.08 21.3853
head 8.76126 -13.9061 7.289
rclavicle -9.2497e-015 2.88238e-015
rhumerus -6.046 39.2337 -93.4022
rradius 72.3064
rwrist -53.8567
rhand -15.8624 -10.4964
rfingers 7.12502
rthumb 10.3329 -40.2226
lclavicle -9.2497e-015 2.88238e-015
lhumerus -35.8 -15.3283 95.088
lradius 95.562
lwrist 60.534
lhand -6.84575 14.6448
lfingers 7.12502
lthumb 19.0192 43.7349
rfemur -5.98222 -11.3716 14.6069
rtibia 19.1272
rfoot -18.1942 -30.2304
rtoes 7.34802
lfemur -16.8939 -1.41273 -19.4328
ltibia 19.2129
lfoot -7.78036 -3.51879
ltoes -0.0746113
4
root 5.78817 17.8215 -3.11495 8.84619 -12.3126 -1.05043
lowerback 1.27816 1.29751 -4.10503
upperback -2.28378 1.64053 0.862277
thorax -3.21294 0.929267 3.12265
lowerneck 3.52393 -18.5295 -22.8694
upperneck 9.40415 -28.0827 21.4249
head 8.73771 -13.9113 7.30679
rclavicle -3.46072e-014 -1.39149e-014
rhumerus -5.82437 38.7642 -93.3158
rradius 71.7819
rwrist -51.142
rhand -12.5096 -10.9241
rfingers 7.12502
rthumb 13.5659 -40.4621
lclavicle -3.46072e-014 -1.39149e-014
lhumerus -35.7583 -15.2978 95.0168
lradius 95.6145
lwrist 60.5007
lhand -6.76926 15.0718
lfingers 7.12502
lthumb 19.0927 44.1546
rfemur -6.00617 -11.429 14.6193
rtibia 19.1686
rfoot -18.1996 -30.2217
rtoes 7.27515
lfemur -16.9101 -1.39343 -19.4281
ltibia 19.201
lfoot -7.78968 -3.59285
ltoes -0.0277899
5
root 5.78624 17.8217 -3.11217 8.86726 -12.269 -1.04276
lowerback 1.24793 1.3068 -4.12615
upperback -2.27738 1.65349 0.853257
thorax -3.19075 0.935559 3.12536
lowerneck 3.5365 -18.5404 -22.8572
upperneck 9.36041 -28.093 21.4333
head 8.72298 -13.9172 7.30712
rclavicle 3.96638e-014 -1.11319e-014
rhumerus -5.9163 39.3253 -93.3636
rradius 72.2695
rwrist -53.3202
rhand -15.7791 -10.4602
rfingers 7.12502
rthumb 10.4132 -40.1823
lclavicle 3.96638e-014 -1.11319e-014
lhumerus -35.7164 -15.2437 94.9552
lradius 95.6483
lwrist 60.4307
lhand -6.69653 15.4438
lfingers 7.12502
lthumb 19.1627 44.5197
rfemur -6.03214 -11.4799 14.6208
rtibia 19.2092
rfoot -18.2201 -30.2088
rtoes 7.2465
lfemur -16.9261 -1.38422 -19.4311
ltibia 19.1934
lfoot -7.80282 -3.64843
ltoes 0.00217918
6
root 5.7842 17.8219 -3.10935 8.88965 -12.2254 -1.03797
lowerback 1.21255 1.31517 -4.14684
upperback -2.26902 1.66558 0.84687
thorax -3.16363 0.9413 3.13074
lowerneck 3.55172 -18.5509 -22.8516
upperneck 9.31197 -28.1036 21.4483
head 8.70852 -13.9236 7.31048
rclavicle -2.79976e-014 7.45443e-015
rhumerus -5.86555 39.3852 -93.347
rradius 72.259
rwrist -53.0951
rhand -15.7723 -10.4038
rfingers 7.12502
rthumb 10.4198 -40.1256
lclavicle -2.79976e-014 7.45443e-015
lhumerus -35.6669 -15.1795 94.888
lradius 95.6845
lwrist 60.3513
lhand -6.61362 15.8922
lfingers 7.12502
lthumb 19.2424 44.9602
rfemur -6.061 -11.5288 14.6264
rtibia 19.2535
rfoot -18.2406 -30.1987
rtoes 7.21957
lfemur -16.9435 -1.37369 -19.4308
ltibia 19.1872
lfoot -7.81649 -3.70427
ltoes 0.028958
7
root 5.78211 17.8222 -3.10645 8.91247 -12.1815 -1.03294
lowerback 1.17349 1.325 -4.16748
upperback -2.25543 1.67985 0.83933
thorax -3.12917 0.947863 3.13498
lowerneck 3.55081 -18.5679 -22.8445
upperneck 9.2667 -28.1223 21.4688
head 8.70046 -13.9321 7.31168
rclavicle 1.86609e-014 2.98177e-015
rhumerus -5.80427 39.438 -93.3247
rradius 72.2474
rwrist -52.8878
rhand -15.7708 -10.3534
rfingers 7.12502
rthumb 10.4213 -40.0751
lclavicle 1.86609e-014 2.98177e-015
lhumerus -35.6077 -15.1252 94.8202
lradius 95.7174
lwrist 60.2769
lhand -6.54261 16.2909
lfingers 7.12502
lthumb 19.3107 45.3521
rfemur -6.09009 -11.5785 14.6323
rtibia 19.2969
rfoot -18.2533 -30.1918
rtoes 7.17722
lfemur -16.96 -1.36311 -19.4307
ltibia 19.1786
lfoot -7.82874 -3.75985
ltoes 0.0581237
8
root 5.78006 17.8224 -3.10342 8.93495 -12.1378 -1.02858
lowerback 1.13131 1.33567 -4.18749
upperback -2.23543 1.69553 0.831819
thorax -3.08643 0.954826 3.139
lowerneck 3.52212 -18.5935 -22.8378
upperneck 9.23114 -28.1504 21.4926
head 8.70324 -13.9428 7.3085
rclavicle 4.61988e-014 -1.60022e-014
rhumerus -5.72513 39.4915 -93.2907
rradius 72.2364
rwrist -52.7362
rhand -15.7848 -10.3102
rfingers 7.12502
rthumb 10.4078 -40.0326
lclavicle 4.61988e-014 -1.60022e-014
lhumerus -35.5392 -15.0841 94.7584
lradius 95.7387
lwrist 60.2182
lhand -6.49768 16.5798
lfingers 7.12502
lthumb 19.3539 45.6366
rfemur -6.11859 -11.6284 14.6383
rtibia 19.3403
rfoot -18.2622 -30.1855
rtoes 7.12596
lfemur -16.9751 -1.357 -19.4298
ltibia 19.1701
lfoot -7.84001 -3.80935
ltoes 0.0845008
9
root 5.77814 17.8227 -3.1003 8.95683 -12.0943 -1.02541
lowerback 1.08981 1.34811 -4.2049
upperback -2.21385 1.71364 0.823608
thorax -3.04254 0.962868 3.14077
lowerneck 3.49294 -18.621 -22.8345
upperneck 9.19478 -28.1826 21.524
head 8.70866 -13.9552 7.30706
rclavicle -3.22218e-014 1.98785e-015
rhumerus -5.6396 39.5335 -93.2533
rradius 72.2254
rwrist -52.6383
rhand -15.7961 -10.2978
rfingers 7.12502
rthumb 10.3968 -40.0208
lclavicle -3.22218e-014 1.98785e-015
lhumerus -35.4714 -15.0597 94.7064
lradius 95.7496
lwrist 60.1755
lhand -6.47324 16.7661
lfingers 7.12502
lthumb 19.3774 45.8206
rfemur -6.14644 -11.6821 14.6446
rtibia 19.3841
rfoot -18.2679 -30.1755
rtoes 7.06974
lfemur -16.9888 -1.35427 -19.4278
ltibia 19.1613
lfoot -7.85078 -3.85461
ltoes 0.107891
10
root 5.77645 17.8229 -3.09718 8.97873 -12.0476 -1.02138
lowerback 1.05126 1.36169 -4.21905
upperback -2.1893 1.73323 0.812523
thorax -2.99716 0.971443 3.13768
lowerneck 3.4469 -18.656 -22.8267
upperneck 9.16567 -28.2239 21.556
head 8.72089 -13.9703 7.30112
rclavicle -2.01021e-014 -1.66979e-014
rhumerus -5.54339 39.5631 -93.2109
rradius 72.2162
rwrist -52.6018
rhand -15.8138 -10.2799
rfingers 7.12502
rthumb 10.3798 -40.0037
lclavicle -2.01021e-014 -1.66979e-014
lhumerus -35.4042 -15.0614 94.667
lradius 95.7486
lwrist 60.1692
lhand -6.49849 16.7519
lfingers 7.12502
lthumb 19.3531 45.8089
rfemur -6.17387 -11.7392 14.649
rtibia 19.4281
rfoot -18.2754 -30.1625
rtoes 7.01557
lfemur -17.003 -1.35921 -19.4268
ltibia 19.1523
lfoot -7.8598 -3.89526
ltoes 0.124329
11
root 5.77495 17.8232 -3.09394 9.00024 -11.9969 -1.01598
lowerback 1.01775 1.3747 -4.23239
upperback -2.16681 1.75184 0.800513
thorax -2.95665 0.979629 3.13309
lowerneck 3.40646 -18.6847 -22.816
upperneck 9.14062 -28.2583 21.5898
head 8.73189 -13.9825 7.29782
rclavicle 5.64673e-015 -1.799e-014
rhumerus -5.44385 39.584 -93.1692
rradius 72.205
rwrist -52.5989
rhand -15.8253 -10.2688
rfingers 7.12502
rthumb 10.3687 -39.9932
lclavicle 5.64673e-015 -1.799e-014
lhumerus -35.3397 -15.0655 94.6293
lradius 95.7479
lwrist 60.1656
lhand -6.5207 16.7345
lfingers 7.12502
lthumb 19.3317 45.7936
rfemur -6.20016 -11.803 14.651
rtibia 19.4727
rfoot -18.2832 -30.1453
rtoes 6.96037
lfemur -17.0181 -1.36729 -19.428
ltibia 19.1435
lfoot -7.86868 -3.93637
ltoes 0.133094
12
root 5.77355 17.8235 -3.09067 9.02163 -11.9422 -1.01127
lowerback 0.988957 1.38631 -4.24772
upperback -2.15515 1.76822 0.791714
thorax -2.92999 0.987274 3.13279
lowerneck 3.40405 -18.7032 -22.8183
upperneck 9.09976 -28.2844 21.6325
head 8.73279 -13.994 7.30504
rclavicle -3.4104e-014 -9.54166e-015
rhumerus -5.37286 39.5988 -93.1433
rradius 72.1948
rwrist -52.6082
rhand -15.8312 -10.241
rfingers 7.12502
rthumb 10.363 -39.9656
lclavicle -3.4104e-014 -9.54166e-015
lhumerus -35.2982 -15.0661 94.6016
lradius 95.7502
lwrist 60.1711
lhand -6.54823 16.6889
lfingers 7.12502
lthumb 19.3053 45.7507
rfemur -6.22532 -11.868 14.6534
rtibia 19.5173
rfoot -18.2941 -30.1276
rtoes 6.91294
lfemur -17.0335 -1.38042 -19.4284
ltibia 19.1352
lfoot -7.87695 -3.97551
ltoes 0.129197
13
root 5.77212 17.8239 -3.08737 9.04473 -11.8849 -1.00879
lowerback 0.965779 1.39631 -4.26261
upperback -2.14894 1.78221 0.785226
thorax -2.91201 0.994023 3.13453
lowerneck 3.40854 -18.7168 -22.8213
upperneck 9.06163 -28.305 21.6736
head 8.73199 -14.0036 7.31397
rclavicle -9.06955e-015 2.46493e-014
rhumerus -5.31581 39.6063 -93.1288
rradius 72.1805
rwrist -52.5925
rhand -15.8161 -10.2051
rfingers 7.12502
rthumb 10.3775 -39.9291
lclavicle -9.06955e-015 2.46493e-014
lhumerus -35.2663 -15.0622 94.5776
lradius 95.7552
lwrist 60.1854
lhand -6.57898 16.6193
lfingers 7.12502
lthumb 19.2757 45.684
rfemur -6.25013 -11.9311 14.6588
rtibia 19.5609
rfoot -18.3137 -30.1096
rtoes 6.88407
lfemur -17.0512 -1.39329 -19.4263
ltibia 19.1285
lfoot -7.8854 -4.01662
ltoes 0.126064
14
root 5.77061 17.8244 -3.08399 9.06835 -11.8253 -1.00992
lowerback 0.950066 1.40301 -4.28033
upperback -2.15533 1.79134 0.78524
thorax -2.91118 0.999086 3.14443
lowerneck 3.44142 -18.7179 -22.8396
upperneck 9.02953 -28.3145 21.7132
head 8.72785 -14.0105 7.32997
rclavicle 1.80149e-015 2.48481e-015
rhumerus -5.28932 39.6176 -93.1332
rradius 72.1605
rwrist -52.5265
rhand -15.7801 -10.1802
rfingers 7.12502
rthumb 10.4123 -39.9023
lclavicle 1.80149e-015 2.48481e-015
lhumerus -35.2602 -15.0456 94.5638
lradius 95.7625
lwrist 60.2124
lhand -6.61605 16.5312
lfingers 7.12502
lthumb 19.2401 45.5994
rfemur -6.27263 -11.9909 14.6684
rtibia 19.6027
rfoot -18.3377 -30.0941
rtoes 6.8631
lfemur -17.0696 -1.40633 -19.4201
ltibia 19.1243
lfoot -7.89515 -4.05809
ltoes 0.115435
